<svg xmlns="http://www.w3.org/2000/svg" xmlns:xlink="http://www.w3.org/1999/xlink" width="1026" height="752" viewBox="0 0 1026 752"><defs><path id="a" d="M96,96 C149.019336,96 192,53.019336 192,0 L0,0 C0,53.019336 42.980664,96 96,96 Z"/><path id="e" d="M0,96 L42.4086027,6.2579038 C45.6687953,0.0411713921 50.3038809,-1.5436871 56.3138594,1.50332832 C61.416091,4.44331914 63.0846095,9.3422693 61.3194149,16.2001788 L54.946371,33.1074856 C53.2596024,38.5796881 52.4162181,42.6947468 52.4162181,45.4526616 C52.4162181,49.589534 56.0120308,60.5251515 53.5123029,73.8943763 C51.8458177,82.8071928 50.203369,90.175734 48.5849568,96 L0,96 Z"/><path id="g" d="M4.47668627,73.2258693 L17.3075235,8.90625863 C18.4763664,2.36975009 22.1201323,-0.568787714 28.2388213,0.0906452187 C35.416225,1.12763406 38.768075,4.81780501 38.2943713,11.1611581 L36.231064,35.5469947 C35.8633034,38.5815821 36.5510725,42.2826896 38.2943713,46.6503172 C40.9093195,53.2017587 45,66.6982246 45,73.2258693 C45,77.5776325 37.1638532,96.5023427 21.4915595,130 L0,130 L4.47668627,73.2258693 Z"/><path id="i" d="M3.04541258,24.3325769 L3.069,24.266 L0,24.2323577 C0.243099357,22.3142009 0.369437138,19.3002432 0.379013343,15.1904845 L0.379150545,14.2226266 C0.375924732,12.5771099 0.355426496,10.7694924 0.317655838,8.79977423 C-0.580597495,2.93325808 1.82464246,0 7.53337571,0 L16.7019217,0 C22.4106549,0 24.8158949,2.93325808 23.9176416,8.79977423 C23.7752546,16.3392485 23.8854083,21.5168494 24.2481025,24.3325769 L24.2481025,24.3325769 L3.04541258,24.3325769 Z"/><path id="k" d="M9.8226622,55 L2.28542239,35.0995508 C-3.06934971,19.892504 0.985599675,9.24796276 14.4502705,3.16592703 C30.4147575,-3.87335604 41.9489231,0.825985709 49.0527673,17.2639523 L64,55 L9.8226622,55 Z"/><polygon id="c" points="0 0 68.339 0 68.339 24.958 54 24.958 54 135 0 135"/></defs><g fill="none" fill-rule="evenodd"><rect width="1026" height="752"/><g transform="translate(455 25)"><path fill="#53D1FF" d="M64.1276943,0 L64.1276943,0 L64.1276943,0 L384,0 L512,128 L512,610 L512,610.121426 C512,645.400588 483.400588,674 448.121426,674 L448.121426,674 L448.121426,674 L64,674 C28.653776,674 4.32866401e-15,645.346224 0,610 L0,609.858626 L0,609.858626 L0,64.1578376 L0,64.1276943 C-4.33730066e-15,28.7109467 28.7109467,6.50595099e-15 64.1276943,0 Z"/><g fill="#262626" transform="translate(44 137)"><rect width="368" height="13" x="52" y="13" opacity=".12" rx="6.5"/><rect width="368" height="13" x="52" y="77" opacity=".12" rx="6.5"/><rect width="368" height="13" x="52" y="141" opacity=".12" rx="6.5"/><rect width="368" height="13" x="52" y="205" opacity=".12" rx="6.5"/><rect width="368" height="13" x="52" y="269" opacity=".12" rx="6.5"/><rect width="368" height="13" x="52" y="333" opacity=".12" rx="6.5"/><rect width="368" height="13" x="52" y="397" opacity=".12" rx="6.5"/><path fill-rule="nonzero" d="M28 0 10 0C4.4771525 0 0 4.4771525 0 10L0 28C0 33.5228475 4.4771525 38 10 38L28 38C33.5228475 38 38 33.5228475 38 28L38 10C38 4.4771525 33.5228475 0 28 0ZM10 4 28 4C31.3137085 4 34 6.6862915 34 10L34 28C34 31.3137085 31.3137085 34 28 34L10 34C6.6862915 34 4 31.3137085 4 28L4 10C4 6.6862915 6.6862915 4 10 4ZM28 64 10 64C4.4771525 64 0 68.4771525 0 74L0 92C0 97.5228475 4.4771525 102 10 102L28 102C33.5228475 102 38 97.5228475 38 92L38 74C38 68.4771525 33.5228475 64 28 64ZM10 68 28 68C31.3137085 68 34 70.6862915 34 74L34 92C34 95.3137085 31.3137085 98 28 98L10 98C6.6862915 98 4 95.3137085 4 92L4 74C4 70.6862915 6.6862915 68 10 68ZM28 128 10 128C4.4771525 128 0 132.477153 0 138L0 156C0 161.522847 4.4771525 166 10 166L28 166C33.5228475 166 38 161.522847 38 156L38 138C38 132.477153 33.5228475 128 28 128ZM10 132 28 132C31.3137085 132 34 134.686292 34 138L34 156C34 159.313708 31.3137085 162 28 162L10 162C6.6862915 162 4 159.313708 4 156L4 138C4 134.686292 6.6862915 132 10 132ZM28 192 10 192C4.4771525 192 0 196.477153 0 202L0 220C0 225.522847 4.4771525 230 10 230L28 230C33.5228475 230 38 225.522847 38 220L38 202C38 196.477153 33.5228475 192 28 192ZM10 196 28 196C31.3137085 196 34 198.686292 34 202L34 220C34 223.313708 31.3137085 226 28 226L10 226C6.6862915 226 4 223.313708 4 220L4 202C4 198.686292 6.6862915 196 10 196ZM28 256 10 256C4.4771525 256 0 260.477153 0 266L0 284C0 289.522847 4.4771525 294 10 294L28 294C33.5228475 294 38 289.522847 38 284L38 266C38 260.477153 33.5228475 256 28 256ZM10 260 28 260C31.3137085 260 34 262.686292 34 266L34 284C34 287.313708 31.3137085 290 28 290L10 290C6.6862915 290 4 287.313708 4 284L4 266C4 262.686292 6.6862915 260 10 260ZM28 320 10 320C4.4771525 320 0 324.477153 0 330L0 348C0 353.522847 4.4771525 358 10 358L28 358C33.5228475 358 38 353.522847 38 348L38 330C38 324.477153 33.5228475 320 28 320ZM10 324 28 324C31.3137085 324 34 326.686292 34 330L34 348C34 351.313708 31.3137085 354 28 354L10 354C6.6862915 354 4 351.313708 4 348L4 330C4 326.686292 6.6862915 324 10 324ZM28 384 10 384C4.4771525 384 0 388.477153 0 394L0 412C0 417.522847 4.4771525 422 10 422L28 422C33.5228475 422 38 417.522847 38 412L38 394C38 388.477153 33.5228475 384 28 384ZM10 388 28 388C31.3137085 388 34 390.686292 34 394L34 412C34 415.313708 31.3137085 418 28 418L10 418C6.6862915 418 4 415.313708 4 412L4 394C4 390.686292 6.6862915 388 10 388Z" opacity=".12"/></g><path fill="#3E9EC1" d="M384,0 L512,128 L447.87399,128 C412.597359,128 384,99.4026405 384,64.1260098 L384,64 L384,64 L384,0 Z"/><circle cx="128" cy="252" r="32" fill="#262626"/><g transform="translate(160 408)"><mask id="b" fill="#fff"><use xlink:href="#a"/></mask><use xlink:href="#a" fill="#262626"/><circle cx="96" cy="128" r="64" fill="#FFACDB" mask="url(#b)"/></g><circle cx="384" cy="252" r="32" fill="#262626"/></g><circle cx="440" cy="425" r="48" fill="#3E9EC1"/><circle cx="944" cy="425" r="48" fill="#3E9EC1"/><g transform="translate(559 679)"><path fill="#BC0101" d="M0.00125888485,73 L127.001259,73 C127.001259,24.3333333 105.834592,0 63.5012589,0 C21.1679256,0 0.00125888485,24.3333333 0.00125888485,73 Z"/><path fill="#D4D4D4" d="M0,73 L127.001259,73 C127.001259,67.4999976 126.777712,62.8333309 126.330618,59 L0.6555467,59 C0.199364033,63.118618 -0.0191515339,67.7852847 0,73 Z"/><path fill="#F7F7F7" d="M0.6555467,59 L126.330618,59 C126.123681,56.4470519 125.780751,53.7803852 125.301826,51 L1.70452662,51 C1.23694444,53.8823392 0.887284469,56.5490059 0.6555467,59 Z"/><path fill="#FFF" fill-rule="nonzero" d="M64.0012589 14.5C73.2267179 14.5 80.3807319 15.4568557 85.7206583 17.063615 87.6249853 17.6366183 89.1710902 18.2568516 90.3902456 18.8855988 91.1602908 19.2827293 91.6664601 19.6106689 91.9397529 19.8298595 92.5860037 20.3481754 92.6897154 21.2922433 92.1713994 21.9384941 91.6854782 22.5443542 90.825361 22.6733733 90.1872502 22.2600548L89.9660999 22.0993883 89.8146316 22.000337 89.6067363 21.874838 89.3407905 21.7247423 89.0151705 21.5519012C87.962033 21.0087734 86.5869119 20.4571317 84.856255 19.936385 79.8105128 18.4181443 72.945928 17.5 64.0012589 17.5 55.0565898 17.5 48.1920049 18.4181443 43.1462628 19.936385 41.4156059 20.4571317 40.0404847 21.0087734 38.9873472 21.5519012L38.6617273 21.7247423 38.3957815 21.874838 38.1878862 22.000337 38.0364179 22.0993883 37.9397529 22.1701405C37.2935022 22.6884565 36.3494343 22.5847448 35.8311183 21.9384941 35.3128024 21.2922433 35.416514 20.3481754 36.0627648 19.8298595 36.1174234 19.7860213 36.181397 19.7378333 36.2549337 19.6856117L36.5044809 19.517163C36.7832133 19.3372467 37.1502451 19.1238771 37.6122722 18.8855988 38.8314276 18.2568516 40.3775324 17.6366183 42.2818595 17.063615 47.6217859 15.4568557 54.7757999 14.5 64.0012589 14.5ZM63.3128375 4.5017958 64.0012589 4.5C66.5422552 4.5 68.8983775 4.57261976 71.0776651 4.71161924L72.2488785 4.79398274 73.3853071 4.88928744C78.0483608 5.3130386 81.8131124 6.06793963 84.773938 7.08073688 86.4863046 7.66647897 87.8239975 8.30567332 88.8324808 8.96094825 89.4946668 9.39121207 89.9179314 9.7613659 90.1459578 10.0306371 90.6813221 10.6628368 90.6028215 11.6093345 89.9706218 12.1446989 89.3779345 12.646603 88.5090088 12.6089773 87.9615817 12.081397L87.8381571 11.9500604 87.7050942 11.8358971 87.5471947 11.7159828 87.3299181 11.5638935C87.2885656 11.5360007 87.2445953 11.5068697 87.1979353 11.4765518 86.4028758 10.9599517 85.2880926 10.427271 83.8029752 9.91926312 81.2739254 9.05416159 78.0588684 8.38405795 74.085176 7.97072882L73.0313037 7.8687692 71.9427266 7.7787028 70.8191583 7.70077334C68.9172258 7.58114041 66.8683024 7.51309352 64.6664187 7.50171006L64.0012589 7.5C61.54547 7.5 59.2754852 7.56917712 57.1833595 7.70077334L56.0597911 7.7787028 54.9712141 7.8687692C50.5079769 8.26899265 46.9485098 8.97893537 44.1995426 9.91926312 42.7144251 10.427271 41.599642 10.9599517 40.8045825 11.4765518L40.6725997 11.5638935 40.455323 11.7159828 40.2974236 11.8358971 40.1954517 11.921177 40.1459578 11.9693629C39.6105934 12.6015627 38.6640957 12.6800632 38.031896 12.1446989 37.3996962 11.6093345 37.3211956 10.6628368 37.85656 10.0306371 38.0845863 9.7613659 38.507851 9.39121207 39.170037 8.96094825 40.1785203 8.30567332 41.5162132 7.66647897 43.2285797 7.08073688 46.1894053 6.06793963 49.954157 5.3130386 54.6172107 4.88928744L55.7536393 4.79398274 56.9248526 4.71161924C58.9060232 4.58525608 61.0333381 4.51375219 63.3128375 4.5017958Z"/><g transform="translate(177)"><path fill="#BC0101" d="M0.00125888485,73 L127.001259,73 C127.001259,24.3333333 105.834592,0 63.5012589,0 C21.1679256,0 0.00125888485,24.3333333 0.00125888485,73 Z"/><path fill="#D4D4D4" d="M0,73 L127.001259,73 C127.001259,67.4999976 126.777712,62.8333309 126.330618,59 L0.6555467,59 C0.199364033,63.118618 -0.0191515339,67.7852847 0,73 Z"/><path fill="#F7F7F7" d="M0.6555467,59 L126.330618,59 C126.123681,56.4470519 125.780751,53.7803852 125.301826,51 L1.70452662,51 C1.23694444,53.8823392 0.887284469,56.5490059 0.6555467,59 Z"/><path fill="#FFF" fill-rule="nonzero" d="M64.0012589 14.5C73.2267179 14.5 80.3807319 15.4568557 85.7206583 17.063615 87.6249853 17.6366183 89.1710902 18.2568516 90.3902456 18.8855988 91.1602908 19.2827293 91.6664601 19.6106689 91.9397529 19.8298595 92.5860037 20.3481754 92.6897154 21.2922433 92.1713994 21.9384941 91.6854782 22.5443542 90.825361 22.6733733 90.1872502 22.2600548L89.9660999 22.0993883 89.8146316 22.000337 89.6067363 21.874838 89.3407905 21.7247423 89.0151705 21.5519012C87.962033 21.0087734 86.5869119 20.4571317 84.856255 19.936385 79.8105128 18.4181443 72.945928 17.5 64.0012589 17.5 55.0565898 17.5 48.1920049 18.4181443 43.1462628 19.936385 41.4156059 20.4571317 40.0404847 21.0087734 38.9873472 21.5519012L38.6617273 21.7247423 38.3957815 21.874838 38.1878862 22.000337 38.0364179 22.0993883 37.9397529 22.1701405C37.2935022 22.6884565 36.3494343 22.5847448 35.8311183 21.9384941 35.3128024 21.2922433 35.416514 20.3481754 36.0627648 19.8298595 36.1174234 19.7860213 36.181397 19.7378333 36.2549337 19.6856117L36.5044809 19.517163C36.7832133 19.3372467 37.1502451 19.1238771 37.6122722 18.8855988 38.8314276 18.2568516 40.3775324 17.6366183 42.2818595 17.063615 47.6217859 15.4568557 54.7757999 14.5 64.0012589 14.5ZM63.3128375 4.5017958 64.0012589 4.5C66.5422552 4.5 68.8983775 4.57261976 71.0776651 4.71161924L72.2488785 4.79398274 73.3853071 4.88928744C78.0483608 5.3130386 81.8131124 6.06793963 84.773938 7.08073688 86.4863046 7.66647897 87.8239975 8.30567332 88.8324808 8.96094825 89.4946668 9.39121207 89.9179314 9.7613659 90.1459578 10.0306371 90.6813221 10.6628368 90.6028215 11.6093345 89.9706218 12.1446989 89.3779345 12.646603 88.5090088 12.6089773 87.9615817 12.081397L87.8381571 11.9500604 87.7050942 11.8358971 87.5471947 11.7159828 87.3299181 11.5638935C87.2885656 11.5360007 87.2445953 11.5068697 87.1979353 11.4765518 86.4028758 10.9599517 85.2880926 10.427271 83.8029752 9.91926312 81.2739254 9.05416159 78.0588684 8.38405795 74.085176 7.97072882L73.0313037 7.8687692 71.9427266 7.7787028 70.8191583 7.70077334C68.9172258 7.58114041 66.8683024 7.51309352 64.6664187 7.50171006L64.0012589 7.5C61.54547 7.5 59.2754852 7.56917712 57.1833595 7.70077334L56.0597911 7.7787028 54.9712141 7.8687692C50.5079769 8.26899265 46.9485098 8.97893537 44.1995426 9.91926312 42.7144251 10.427271 41.599642 10.9599517 40.8045825 11.4765518L40.6725997 11.5638935 40.455323 11.7159828 40.2974236 11.8358971 40.1954517 11.921177 40.1459578 11.9693629C39.6105934 12.6015627 38.6640957 12.6800632 38.031896 12.1446989 37.3996962 11.6093345 37.3211956 10.6628368 37.85656 10.0306371 38.0845863 9.7613659 38.507851 9.39121207 39.170037 8.96094825 40.1785203 8.30567332 41.5162132 7.66647897 43.2285797 7.08073688 46.1894053 6.06793963 49.954157 5.3130386 54.6172107 4.88928744L55.7536393 4.79398274 56.9248526 4.71161924C58.9060232 4.58525608 61.0333381 4.51375219 63.3128375 4.5017958Z"/></g></g><g transform="translate(527)"><mask id="d" fill="#fff"><use xlink:href="#c"/></mask><path fill="#262626" fill-rule="nonzero" d="M38,0.5 C56.128547,0.5 65.9732647,11.5753074 66.4984958,31.8836562 C66.5627506,34.3681068 64.6007944,36.4342409 62.1163438,36.4984958 C59.6318932,36.5627506 57.5657591,34.6007944 57.5015042,32.1163438 C57.095674,16.4246926 50.9403917,9.5 38,9.5 C26.5477803,9.5 20.6880747,14.8999547 19.6608537,27.1437876 L19.5989153,27.9795991 C19.526069,29.1078824 19.4921302,30.291725 19.4965469,31.5321755 L19.5,32 L19.4994069,108.926941 C19.6232119,116.551559 22.3750899,119.5 29,119.5 C35.1976111,119.5 37.6557436,116.993744 37.5403986,110.237446 L37.5212415,109.570284 L37.5,109.113393 L37.5,38 C37.5,35.5147186 39.5147186,33.5 42,33.5 C44.4142733,33.5 46.3844891,35.4012365 46.495102,37.7881643 L46.5,38 L46.5,108.905 L46.5120328,109.169916 C46.9843449,121.276409 40.8524973,128.346889 29.3761223,128.497542 L29,128.5 C17.4103529,128.5 10.8452207,121.600902 10.5088316,109.404012 L10.5,109 L10.5002809,32.0502809 C10.2726894,11.6827361 19.7987239,0.5 38,0.5 Z" mask="url(#d)"/></g><g transform="translate(0 315)"><polygon fill="#DAD8DB" points="99 406 320 406 320 417 99 417"/><path fill="#DAD8DB" d="M361,189.149798 L373.744039,157.94619 C380.641812,141.982063 388.684844,134 397.873134,134 C407.061425,134 414.103713,134 419,134 L419,145.397277 L404.541827,145.397277 C395.57456,145.397277 388.757517,151.098185 384.090698,162.5 C379.42388,173.901815 375.676333,183.401815 372.848059,191 L361,189.149798 Z"/><polygon fill="#DAD8DB" points="306 338.802 328.286 394 339 389.122 316.499 333"/><path fill="#BC0101" d="M364.704143,189 C374.88717,189 378.745256,192.623021 376.278402,199.869062 C353.460883,259.362504 337.773568,299.025216 329.216458,318.857195 C320.659348,338.689175 304.546429,347.237722 280.877701,344.502838 C153.418391,327.855584 83.4072805,317.972084 70.8443683,314.852339 C58.2814523,311.732594 51.9999944,303.151557 51.9999944,289.109226 L51.9999944,289.109226 L51.9999944,196.312157 C51.9999944,191.437386 55.4140422,189 62.242138,189 L62.242138,189 Z M311.163779,212.705826 L281.756543,319.104614 C281.050339,322.332289 283.094395,325.521329 286.322071,326.227533 C289.182542,326.853394 292.062141,325.316975 293.148237,322.623034 L293.234555,322.395881 L322.641791,215.997093 C323.34325,212.768057 321.294243,209.581761 318.065207,208.880302 C315.130675,208.24282 312.178228,209.879388 311.163779,212.705826 Z M257.993566,213.852732 L240.791958,314.784615 C240.421102,318.200037 242.88921,321.269421 246.304631,321.640277 C249.324227,321.968153 252.125967,320.068975 252.955635,317.171057 L253.017006,316.940221 L270.218615,216.008337 C270.584215,212.591989 268.111096,209.526114 264.694748,209.160514 C261.602139,208.829558 258.740304,210.833437 257.993566,213.852732 Z M210.677442,209.102682 C207.728862,209.136754 205.264479,211.355695 204.922383,214.284561 L200.194813,310.208414 C200.227498,313.445655 202.878297,316.04346 206.115538,316.010775 C208.992645,315.981725 211.410693,313.871914 211.848475,311.051039 L211.879601,310.820788 L216.607171,214.896935 C216.56976,211.659447 213.91493,209.065272 210.677442,209.102682 Z M166.606038,208.773271 C163.595583,208.970939 161.197668,211.368854 161,214.379309 L161,304.480891 C161.212601,307.7946 164.07124,310.308544 167.384948,310.095943 C170.322835,309.907454 172.679456,307.623185 172.980154,304.717795 L173,304.480891 L173,214.379309 C172.782421,211.0656 169.919746,208.555692 166.606038,208.773271 Z M126.606039,208.773494 C123.595583,208.971161 121.197667,211.369077 121,214.379533 L121,298.480662 C121.2126,301.79437 124.071239,304.308315 127.384947,304.095715 C130.322834,303.907226 132.679457,301.622956 132.980154,298.717566 L133,298.480662 L133,214.379533 C132.782421,211.065824 129.919747,208.555915 126.606039,208.773494 Z M88.6060402,209.773848 C85.5955832,209.971514 83.1976665,212.369431 83,215.379888 L83,290.480298 C83.2125996,293.794007 86.0712371,296.307952 89.3849456,296.095353 C92.3228339,295.906865 94.6794574,293.622594 94.9801537,290.717203 L95,290.480298 L95,215.379888 C94.782422,212.06618 91.9197487,209.55627 88.6060402,209.773848 Z"/><circle cx="342.5" cy="412.5" r="24.5" fill="#5D5360"/><circle cx="76.5" cy="412.5" r="24.5" fill="#5D5360"/><circle cx="77" cy="413" r="12" fill="#C7C5C9"/><circle cx="343" cy="413" r="12" fill="#C7C5C9"/><path fill="#5D5360" d="M414,132 L439,132 C443.418278,132.401662 446.674389,136.308995 446.272727,140.727273 C445.921649,144.589139 442.861866,147.648921 439,148 L439,148 L439,148 L414,148 C409.581722,147.598338 406.325611,143.691005 406.727273,139.272727 C407.078351,135.410861 410.138134,132.351079 414,132 L414,132 L414,132 Z"/><path fill="#FEE07D" d="M292,189 L334.408603,99.2579038 C337.668795,93.0411714 342.303881,91.4563129 348.313859,94.5033283 C353.416091,97.4433191 355.084609,102.342269 353.319415,109.200179 L346.946371,126.107486 C345.259602,131.579688 344.416218,135.694747 344.416218,138.452662 C344.416218,142.589534 348.012031,153.525152 345.512303,166.894376 C343.845818,175.807193 342.203369,183.175734 340.584957,189 L292,189 Z"/><g transform="translate(292 93)"><mask id="f" fill="#fff"><use xlink:href="#e"/></mask><polygon fill="#C38C66" points="32.634 18.574 63.103 32.889 71.846 0 47.085 -8.252" mask="url(#f)"/></g><path fill="#FFD473" d="M277.476686,132.225869 L290.307524,67.9062586 C291.476366,61.3697501 295.120132,58.4312123 301.238821,59.0906452 C308.416225,60.1276341 311.768075,63.817805 311.294371,70.1611581 L309.231064,94.5469947 C308.863303,97.5815821 309.551072,101.28269 311.294371,105.650317 C313.909319,112.201759 318,125.698225 318,132.225869 C318,136.577633 310.163853,155.502343 294.49156,189 L273,189 L277.476686,132.225869 Z"/><g transform="translate(273 59)"><mask id="h" fill="#fff"><use xlink:href="#g"/></mask><polygon fill="#C38C66" points="7.771 21.375 45.674 29.338 42.626 -2.364 16.649 -9.821" mask="url(#h)"/></g><rect width="57" height="61" x="167" y="128" fill="#D6BDEF"/><path fill="#DAD8DB" d="M219,189 L219,112.25325 L219,110.938928 C219,106.554379 222.554379,103 226.938928,103 L226.938928,103 L226.938928,103 L273.217637,103 C278.068002,103 282,106.931998 282,111.782363 L282,112.25325 L282,112.25325 L282,189 L219,189 Z"/><path fill="#CCF49F" d="M243,123 L258,123 L258.310486,123.028226 C261.334904,123.303173 263.56379,125.977836 263.288843,129.002254 C263.037845,131.763227 260.770749,133.905543 258,134 L258,134 L258,134 L243,134 C239.964874,133.89653 237.588297,131.352195 237.691767,128.317069 C237.786225,125.54632 239.928541,123.279224 242.689514,123.028226 L243,123 L243,123 Z"/><path fill="#DBEAFF" d="M131,189 L131,135.723845 C131.155906,129.888221 133.599565,125.318673 138.330975,122.015202 C143.062385,118.71173 145.018729,109.306587 144.200007,93.7997742 C143.301754,87.9332581 145.706994,85 151.415727,85 L160,85 L160,189 L131,189 Z"/><path fill="#DBEAFF" d="M156,189 L156,135.723845 C156.155906,129.888221 158.599565,125.318673 163.330975,122.015202 C168.062385,118.71173 170.018729,109.306587 169.200007,93.7997742 C168.301754,87.9332581 170.706994,85 176.415727,85 L181,85 L181,189 L156,189 Z" transform="matrix(-1 0 0 1 337 0)"/><path fill="#B6B1B7" d="M158.033342,189 L158.033342,164.299651 C157.648266,157.433217 160.59869,154 166.884615,154 C173.170539,154 177.875668,154 181,154 L181,189 L158.033342,189 Z"/><g transform="translate(143.882 85)"><mask id="j" fill="#fff"><use xlink:href="#i"/></mask><use xlink:href="#i" fill="#DBEAFF"/><polygon fill="#B6B1B7" points="25.712 24.261 -1.446 24.261 -1.446 -.759 25.712 -.759" mask="url(#j)"/></g><rect width="63" height="35" x="219" y="154" fill="#CCF49F"/><path fill="#B3E59F" d="M59.1712299,121.627094 L92.1426717,121.518452 L92.4086868,121.542412 C95.6808183,121.837138 98.0944828,124.728647 97.7997572,128.000779 C97.5327549,130.965119 95.1159984,133.275904 92.1426717,133.40981 L92.1426717,133.40981 L92.1426717,133.40981 L59.1712299,133.518452 C55.8891787,133.370642 53.3483737,130.590191 53.4961833,127.30814 C53.6300892,124.334813 55.9408748,121.918057 58.9052149,121.651054 L59.1712299,121.627094 L59.1712299,121.627094 Z" transform="rotate(-133 75.657 127.518)"/><path fill="#95D6A4" d="M83.3371417,112.69744 L116.308584,112.588799 L116.574599,112.612759 C119.84673,112.907485 122.260395,115.798994 121.965669,119.071125 C121.698667,122.035465 119.28191,124.346251 116.308584,124.480157 L116.308584,124.480157 L116.308584,124.480157 L83.3371417,124.588799 C80.0550905,124.440989 77.5142855,121.660538 77.6620951,118.378486 C77.796001,115.40516 80.1067866,112.988403 83.0711267,112.721401 L83.3371417,112.69744 L83.3371417,112.69744 Z" transform="rotate(-89 99.823 118.589)"/><path fill="#95D6A4" d="M55.369311,105.18794 L109.803106,104.350829 L110.082047,104.376595 C113.428287,104.68569 115.89038,107.648925 115.581285,110.995165 C115.301995,114.018748 112.836327,116.373628 109.803106,116.513718 L109.803106,116.513718 L109.803106,116.513718 L55.369311,117.350829 C52.0124036,117.195789 49.4167773,114.348793 49.5718174,110.991886 C49.7119079,107.958664 52.0667872,105.492997 55.0903703,105.213706 L55.369311,105.18794 L55.369311,105.18794 Z" transform="rotate(-109 82.586 110.85)"/><path fill="#FFA95F" d="M83.8226622,189 L76.2854224,169.099551 C70.9306503,153.892504 74.9855997,143.247963 88.4502705,137.165927 C104.414757,130.126644 115.948923,134.825986 123.052767,151.263952 L138,189 L83.8226622,189 Z"/><g transform="translate(74 134)"><mask id="l" fill="#fff"><use xlink:href="#k"/></mask><path fill="#FF8B5A" d="M-10.5219742,27.392711 L14.4780258,27.392711 L14.7489346,27.417339 C18.0507442,27.7175036 20.4840583,30.6374805 20.1838938,33.9392902 C19.9122222,36.9276778 17.4756416,39.2564557 14.4780258,39.392711 L14.4780258,39.392711 L14.4780258,39.392711 L-10.5219742,39.392711 C-13.8339799,39.2421653 -16.3968496,36.4352128 -16.2463038,33.1232071 C-16.1100486,30.1255912 -13.7812707,27.6890107 -10.792883,27.417339 L-10.5219742,27.392711 L-10.5219742,27.392711 Z" mask="url(#l)" transform="rotate(-19 1.978 33.393)"/><path fill="#FF8B5A" d="M38.4780258,16.392711 L63.4780258,16.392711 L63.7489346,16.417339 C67.0507442,16.7175036 69.4840583,19.6374805 69.1838938,22.9392902 C68.9122222,25.9276778 66.4756416,28.2564557 63.4780258,28.392711 L63.4780258,28.392711 L63.4780258,28.392711 L38.4780258,28.392711 C35.1660201,28.2421653 32.6031504,25.4352128 32.7536962,22.1232071 C32.8899514,19.1255912 35.2187293,16.6890107 38.207117,16.417339 L38.4780258,16.392711 L38.4780258,16.392711 Z" mask="url(#l)" transform="rotate(-19 50.978 22.393)"/></g></g></g></svg>