<svg xmlns="http://www.w3.org/2000/svg" xmlns:xlink="http://www.w3.org/1999/xlink" width="1147" height="727" viewBox="0 0 1147 727"><defs><path id="a" d="M7.5,7.54896142 C11.6421356,7.54896142 15,4.16917627 15,0 L0,0 C0,4.16917627 3.35786438,7.54896142 7.5,7.54896142 Z"/><path id="e" d="M7.5,7.54896142 C11.6421356,7.54896142 15,4.16917627 15,0 L0,0 C0,4.16917627 3.35786438,7.54896142 7.5,7.54896142 Z"/><path id="i" d="M36,36 C55.882251,36 72,19.882251 72,0 L0,0 C0,19.882251 16.117749,36 36,36 Z"/><path id="k" d="M7.5,7.5 C11.6421356,7.5 15,4.14213562 15,0 L0,0 C0,4.14213562 3.35786438,7.5 7.5,7.5 Z"/><path id="m" d="M7.5,7.5 C11.6421356,7.5 15,4.14213562 15,0 L0,0 C0,4.14213562 3.35786438,7.5 7.5,7.5 Z"/><path id="o" d="M7.5,7.5 C11.6421356,7.5 15,4.14213562 15,0 L0,0 C0,4.14213562 3.35786438,7.5 7.5,7.5 Z"/><path id="q" d="M96,96 C149.019336,96 192,53.019336 192,0 L0,0 C0,53.019336 42.980664,96 96,96 Z"/><polygon id="c" points="0 0 5 0 5 2.034 3.951 2.034 3.951 11 0 11"/><polygon id="g" points="0 0 5 0 5 2.034 3.951 2.034 3.951 11 0 11"/></defs><g fill="none" fill-rule="evenodd"><rect width="1147" height="725"/><path fill="#9470FF" d="M274.127694,0 L274.127694,0 L274.127694,0 L1035.12143,0 C1070.40059,-6.480677e-15 1099,28.5994119 1099,63.8785743 L1099,64.1578376 L1099,64.1578376 L1099,608 L1099,608.121426 C1099,643.400588 1070.40059,672 1035.12143,672 L1035.12143,672 L1035.12143,672 L274,672 C238.653776,672 210,643.346224 210,608 L210,607.858626 L210,607.858626 L210,64.1578376 L210,64.1276943 C210,28.7109467 238.710947,6.50595099e-15 274.127694,0 Z"/><g transform="translate(972 360)"><g transform="translate(0 2)"><rect width="40" height="40.261"/><path fill="#53D1FF" d="M5.00997612,0 L5.00997612,0 L5.00997612,0 L30,0 L40,10.0652819 L40,47.9673591 L40,48.0094864 C40,50.7656709 37.7656709,53 35.0094864,53 L35.0094864,53 L35.0094864,53 L5,53 C2.23857625,53 7.44360423e-15,50.7614237 0,48 L0,47.9562421 L0,47.9562421 L0,5.04505251 L0,5.00997612 C5.49326806e-16,2.24304271 2.24304271,5.08277421e-16 5.00997612,0 Z"/><g fill="#262626" transform="translate(3.438 10.773)"><rect width="28.75" height="1.022" x="4.063" y="1.022" opacity=".12" rx=".511"/><rect width="28.75" height="1.022" x="4.063" y="6.055" opacity=".12" rx=".511"/><rect width="28.75" height="1.022" x="4.063" y="11.088" opacity=".12" rx=".511"/><rect width="28.75" height="1.022" x="4.063" y="16.12" opacity=".12" rx=".511"/><rect width="28.75" height="1.022" x="4.063" y="21.153" opacity=".12" rx=".511"/><rect width="28.75" height="1.022" x="4.063" y="26.185" opacity=".12" rx=".511"/><rect width="28.75" height="1.022" x="4.063" y="31.218" opacity=".12" rx=".511"/><path fill-rule="nonzero" d="M2.1875 0 .78125 0C.349777539 0 0 .352060953 0 .786350148L0 2.20178042C0 2.63606961.349777539 2.98813056.78125 2.98813056L2.1875 2.98813056C2.61897246 2.98813056 2.96875 2.63606961 2.96875 2.20178042L2.96875.786350148C2.96875.352060953 2.61897246 0 2.1875 0ZM.78125.314540059 2.1875.314540059C2.44638348.314540059 2.65625.525776631 2.65625.786350148L2.65625 2.20178042C2.65625 2.46235393 2.44638348 2.6735905 2.1875 2.6735905L.78125 2.6735905C.522366524 2.6735905.3125 2.46235393.3125 2.20178042L.3125.786350148C.3125.525776631.522366524.314540059.78125.314540059ZM2.1875 5.03264095.78125 5.03264095C.349777539 5.03264095 0 5.3847019 0 5.8189911L0 7.23442136C0 7.66871056.349777539 8.02077151.78125 8.02077151L2.1875 8.02077151C2.61897246 8.02077151 2.96875 7.66871056 2.96875 7.23442136L2.96875 5.8189911C2.96875 5.3847019 2.61897246 5.03264095 2.1875 5.03264095ZM.78125 5.34718101 2.1875 5.34718101C2.44638348 5.34718101 2.65625 5.55841758 2.65625 5.8189911L2.65625 7.23442136C2.65625 7.49499488 2.44638348 7.70623145 2.1875 7.70623145L.78125 7.70623145C.522366524 7.70623145.3125 7.49499488.3125 7.23442136L.3125 5.8189911C.3125 5.55841758.522366524 5.34718101.78125 5.34718101ZM2.1875 10.0652819.78125 10.0652819C.349777539 10.0652819 0 10.4173429 0 10.851632L0 12.2670623C0 12.7013515.349777539 13.0534125.78125 13.0534125L2.1875 13.0534125C2.61897246 13.0534125 2.96875 12.7013515 2.96875 12.2670623L2.96875 10.851632C2.96875 10.4173429 2.61897246 10.0652819 2.1875 10.0652819ZM.78125 10.379822 2.1875 10.379822C2.44638348 10.379822 2.65625 10.5910585 2.65625 10.851632L2.65625 12.2670623C2.65625 12.5276358 2.44638348 12.7388724 2.1875 12.7388724L.78125 12.7388724C.522366524 12.7388724.3125 12.5276358.3125 12.2670623L.3125 10.851632C.3125 10.5910585.522366524 10.379822.78125 10.379822ZM2.1875 15.0979228.78125 15.0979228C.349777539 15.0979228 0 15.4499838 0 15.884273L0 17.2997033C0 17.7339925.349777539 18.0860534.78125 18.0860534L2.1875 18.0860534C2.61897246 18.0860534 2.96875 17.7339925 2.96875 17.2997033L2.96875 15.884273C2.96875 15.4499838 2.61897246 15.0979228 2.1875 15.0979228ZM.78125 15.4124629 2.1875 15.4124629C2.44638348 15.4124629 2.65625 15.6236995 2.65625 15.884273L2.65625 17.2997033C2.65625 17.5602768 2.44638348 17.7715134 2.1875 17.7715134L.78125 17.7715134C.522366524 17.7715134.3125 17.5602768.3125 17.2997033L.3125 15.884273C.3125 15.6236995.522366524 15.4124629.78125 15.4124629ZM2.1875 20.1305638.78125 20.1305638C.349777539 20.1305638 0 20.4826248 0 20.9169139L0 22.3323442C0 22.7666334.349777539 23.1186944.78125 23.1186944L2.1875 23.1186944C2.61897246 23.1186944 2.96875 22.7666334 2.96875 22.3323442L2.96875 20.9169139C2.96875 20.4826248 2.61897246 20.1305638 2.1875 20.1305638ZM.78125 20.4451039 2.1875 20.4451039C2.44638348 20.4451039 2.65625 20.6563404 2.65625 20.9169139L2.65625 22.3323442C2.65625 22.5929177 2.44638348 22.8041543 2.1875 22.8041543L.78125 22.8041543C.522366524 22.8041543.3125 22.5929177.3125 22.3323442L.3125 20.9169139C.3125 20.6563404.522366524 20.4451039.78125 20.4451039ZM2.1875 25.1632047.78125 25.1632047C.349777539 25.1632047 0 25.5152657 0 25.9495549L0 27.3649852C0 27.7992744.349777539 28.1513353.78125 28.1513353L2.1875 28.1513353C2.61897246 28.1513353 2.96875 27.7992744 2.96875 27.3649852L2.96875 25.9495549C2.96875 25.5152657 2.61897246 25.1632047 2.1875 25.1632047ZM.78125 25.4777448 2.1875 25.4777448C2.44638348 25.4777448 2.65625 25.6889814 2.65625 25.9495549L2.65625 27.3649852C2.65625 27.6255587 2.44638348 27.8367953 2.1875 27.8367953L.78125 27.8367953C.522366524 27.8367953.3125 27.6255587.3125 27.3649852L.3125 25.9495549C.3125 25.6889814.522366524 25.4777448.78125 25.4777448ZM2.1875 30.1958457.78125 30.1958457C.349777539 30.1958457 0 30.5479067 0 30.9821958L0 32.3976261C0 32.8319153.349777539 33.1839763.78125 33.1839763L2.1875 33.1839763C2.61897246 33.1839763 2.96875 32.8319153 2.96875 32.3976261L2.96875 30.9821958C2.96875 30.5479067 2.61897246 30.1958457 2.1875 30.1958457ZM.78125 30.5103858 2.1875 30.5103858C2.44638348 30.5103858 2.65625 30.7216223 2.65625 30.9821958L2.65625 32.3976261C2.65625 32.6581996 2.44638348 32.8694362 2.1875 32.8694362L.78125 32.8694362C.522366524 32.8694362.3125 32.6581996.3125 32.3976261L.3125 30.9821958C.3125 30.7216223.522366524 30.5103858.78125 30.5103858Z" opacity=".12"/></g><path fill="#3E9EC1" d="M30,0 L40,10.0652819 L34.9901555,10.0652819 C32.2341687,10.0652819 30,7.83111319 30,5.07512642 L30,5.03264095 L30,5.03264095 L30,0 Z"/><ellipse cx="10" cy="19.816" fill="#262626" rx="2.5" ry="2.516"/><g transform="translate(12.5 32.083)"><mask id="b" fill="#fff"><use xlink:href="#a"/></mask><use xlink:href="#a" fill="#262626"/><ellipse cx="7.5" cy="10.065" fill="#FFACDB" mask="url(#b)" rx="5" ry="5.033"/></g><ellipse cx="30" cy="19.816" fill="#262626" rx="2.5" ry="2.516"/></g><g transform="translate(5)"><mask id="d" fill="#fff"><use xlink:href="#c"/></mask><path fill="#262626" fill-rule="nonzero" d="M2.7802511,0.0407407407 C4.10661722,0.0407407407 4.8269011,0.943173198 4.86532937,2.59792755 C4.87003055,2.80036426 4.72648499,2.96871592 4.5447114,2.97395151 C4.36293781,2.97918709 4.21177014,2.81932399 4.20706896,2.61688727 C4.17737659,1.33830828 3.72702842,0.774074074 2.7802511,0.774074074 C1.94235514,0.774074074 1.5136327,1.21407038 1.43847658,2.21171602 L1.43394489,2.27981918 C1.42861513,2.37175338 1.42613201,2.46821463 1.42645516,2.56928837 L1.4267078,2.60740741 L1.42666441,8.8755285 C1.43572254,9.49679372 1.63706233,9.73703704 2.12177058,9.73703704 C2.57521571,9.73703704 2.75506376,9.53282354 2.74662459,8.98231038 L2.74522298,8.92794908 L2.74366885,8.89072095 L2.74366885,3.0962963 C2.74366885,2.89379189 2.89107474,2.72962963 3.07290911,2.72962963 C3.24954822,2.72962963 3.39369808,2.8845452 3.40179101,3.07903561 L3.40214937,3.0962963 L3.40214937,8.87374074 L3.40302975,8.89532652 C3.43758623,9.88178149 2.98895265,10.4578947 2.14928938,10.4701701 L2.12177058,10.4703704 C1.27381981,10.4703704 0.793485178,9.90822167 0.76887344,8.91440101 L0.768227278,8.88148148 L0.768247831,2.61150437 C0.751596214,0.951926649 1.44856379,0.0407407407 2.7802511,0.0407407407 Z" mask="url(#d)"/></g></g><g transform="translate(443 481)"><g transform="translate(0 2)"><rect width="40" height="40.261"/><path fill="#53D1FF" d="M5.00997612,0 L5.00997612,0 L5.00997612,0 L30,0 L40,10.0652819 L40,47.9673591 L40,48.0094864 C40,50.7656709 37.7656709,53 35.0094864,53 L35.0094864,53 L35.0094864,53 L5,53 C2.23857625,53 7.44360423e-15,50.7614237 0,48 L0,47.9562421 L0,47.9562421 L0,5.04505251 L0,5.00997612 C5.49326806e-16,2.24304271 2.24304271,5.08277421e-16 5.00997612,0 Z"/><g fill="#262626" transform="translate(3.438 10.773)"><rect width="28.75" height="1.022" x="4.063" y="1.022" opacity=".12" rx=".511"/><rect width="28.75" height="1.022" x="4.063" y="6.055" opacity=".12" rx=".511"/><rect width="28.75" height="1.022" x="4.063" y="11.088" opacity=".12" rx=".511"/><rect width="28.75" height="1.022" x="4.063" y="16.12" opacity=".12" rx=".511"/><rect width="28.75" height="1.022" x="4.063" y="21.153" opacity=".12" rx=".511"/><rect width="28.75" height="1.022" x="4.063" y="26.185" opacity=".12" rx=".511"/><rect width="28.75" height="1.022" x="4.063" y="31.218" opacity=".12" rx=".511"/><path fill-rule="nonzero" d="M2.1875 0 .78125 0C.349777539 0 0 .352060953 0 .786350148L0 2.20178042C0 2.63606961.349777539 2.98813056.78125 2.98813056L2.1875 2.98813056C2.61897246 2.98813056 2.96875 2.63606961 2.96875 2.20178042L2.96875.786350148C2.96875.352060953 2.61897246 0 2.1875 0ZM.78125.314540059 2.1875.314540059C2.44638348.314540059 2.65625.525776631 2.65625.786350148L2.65625 2.20178042C2.65625 2.46235393 2.44638348 2.6735905 2.1875 2.6735905L.78125 2.6735905C.522366524 2.6735905.3125 2.46235393.3125 2.20178042L.3125.786350148C.3125.525776631.522366524.314540059.78125.314540059ZM2.1875 5.03264095.78125 5.03264095C.349777539 5.03264095 0 5.3847019 0 5.8189911L0 7.23442136C0 7.66871056.349777539 8.02077151.78125 8.02077151L2.1875 8.02077151C2.61897246 8.02077151 2.96875 7.66871056 2.96875 7.23442136L2.96875 5.8189911C2.96875 5.3847019 2.61897246 5.03264095 2.1875 5.03264095ZM.78125 5.34718101 2.1875 5.34718101C2.44638348 5.34718101 2.65625 5.55841758 2.65625 5.8189911L2.65625 7.23442136C2.65625 7.49499488 2.44638348 7.70623145 2.1875 7.70623145L.78125 7.70623145C.522366524 7.70623145.3125 7.49499488.3125 7.23442136L.3125 5.8189911C.3125 5.55841758.522366524 5.34718101.78125 5.34718101ZM2.1875 10.0652819.78125 10.0652819C.349777539 10.0652819 0 10.4173429 0 10.851632L0 12.2670623C0 12.7013515.349777539 13.0534125.78125 13.0534125L2.1875 13.0534125C2.61897246 13.0534125 2.96875 12.7013515 2.96875 12.2670623L2.96875 10.851632C2.96875 10.4173429 2.61897246 10.0652819 2.1875 10.0652819ZM.78125 10.379822 2.1875 10.379822C2.44638348 10.379822 2.65625 10.5910585 2.65625 10.851632L2.65625 12.2670623C2.65625 12.5276358 2.44638348 12.7388724 2.1875 12.7388724L.78125 12.7388724C.522366524 12.7388724.3125 12.5276358.3125 12.2670623L.3125 10.851632C.3125 10.5910585.522366524 10.379822.78125 10.379822ZM2.1875 15.0979228.78125 15.0979228C.349777539 15.0979228 0 15.4499838 0 15.884273L0 17.2997033C0 17.7339925.349777539 18.0860534.78125 18.0860534L2.1875 18.0860534C2.61897246 18.0860534 2.96875 17.7339925 2.96875 17.2997033L2.96875 15.884273C2.96875 15.4499838 2.61897246 15.0979228 2.1875 15.0979228ZM.78125 15.4124629 2.1875 15.4124629C2.44638348 15.4124629 2.65625 15.6236995 2.65625 15.884273L2.65625 17.2997033C2.65625 17.5602768 2.44638348 17.7715134 2.1875 17.7715134L.78125 17.7715134C.522366524 17.7715134.3125 17.5602768.3125 17.2997033L.3125 15.884273C.3125 15.6236995.522366524 15.4124629.78125 15.4124629ZM2.1875 20.1305638.78125 20.1305638C.349777539 20.1305638 0 20.4826248 0 20.9169139L0 22.3323442C0 22.7666334.349777539 23.1186944.78125 23.1186944L2.1875 23.1186944C2.61897246 23.1186944 2.96875 22.7666334 2.96875 22.3323442L2.96875 20.9169139C2.96875 20.4826248 2.61897246 20.1305638 2.1875 20.1305638ZM.78125 20.4451039 2.1875 20.4451039C2.44638348 20.4451039 2.65625 20.6563404 2.65625 20.9169139L2.65625 22.3323442C2.65625 22.5929177 2.44638348 22.8041543 2.1875 22.8041543L.78125 22.8041543C.522366524 22.8041543.3125 22.5929177.3125 22.3323442L.3125 20.9169139C.3125 20.6563404.522366524 20.4451039.78125 20.4451039ZM2.1875 25.1632047.78125 25.1632047C.349777539 25.1632047 0 25.5152657 0 25.9495549L0 27.3649852C0 27.7992744.349777539 28.1513353.78125 28.1513353L2.1875 28.1513353C2.61897246 28.1513353 2.96875 27.7992744 2.96875 27.3649852L2.96875 25.9495549C2.96875 25.5152657 2.61897246 25.1632047 2.1875 25.1632047ZM.78125 25.4777448 2.1875 25.4777448C2.44638348 25.4777448 2.65625 25.6889814 2.65625 25.9495549L2.65625 27.3649852C2.65625 27.6255587 2.44638348 27.8367953 2.1875 27.8367953L.78125 27.8367953C.522366524 27.8367953.3125 27.6255587.3125 27.3649852L.3125 25.9495549C.3125 25.6889814.522366524 25.4777448.78125 25.4777448ZM2.1875 30.1958457.78125 30.1958457C.349777539 30.1958457 0 30.5479067 0 30.9821958L0 32.3976261C0 32.8319153.349777539 33.1839763.78125 33.1839763L2.1875 33.1839763C2.61897246 33.1839763 2.96875 32.8319153 2.96875 32.3976261L2.96875 30.9821958C2.96875 30.5479067 2.61897246 30.1958457 2.1875 30.1958457ZM.78125 30.5103858 2.1875 30.5103858C2.44638348 30.5103858 2.65625 30.7216223 2.65625 30.9821958L2.65625 32.3976261C2.65625 32.6581996 2.44638348 32.8694362 2.1875 32.8694362L.78125 32.8694362C.522366524 32.8694362.3125 32.6581996.3125 32.3976261L.3125 30.9821958C.3125 30.7216223.522366524 30.5103858.78125 30.5103858Z" opacity=".12"/></g><path fill="#3E9EC1" d="M30,0 L40,10.0652819 L34.9901555,10.0652819 C32.2341687,10.0652819 30,7.83111319 30,5.07512642 L30,5.03264095 L30,5.03264095 L30,0 Z"/><ellipse cx="10" cy="19.816" fill="#262626" rx="2.5" ry="2.516"/><g transform="translate(12.5 32.083)"><mask id="f" fill="#fff"><use xlink:href="#e"/></mask><use xlink:href="#e" fill="#262626"/><ellipse cx="7.5" cy="10.065" fill="#FFACDB" mask="url(#f)" rx="5" ry="5.033"/></g><ellipse cx="30" cy="19.816" fill="#262626" rx="2.5" ry="2.516"/></g><g transform="translate(5)"><mask id="h" fill="#fff"><use xlink:href="#g"/></mask><path fill="#262626" fill-rule="nonzero" d="M2.7802511,0.0407407407 C4.10661722,0.0407407407 4.8269011,0.943173198 4.86532937,2.59792755 C4.87003055,2.80036426 4.72648499,2.96871592 4.5447114,2.97395151 C4.36293781,2.97918709 4.21177014,2.81932399 4.20706896,2.61688727 C4.17737659,1.33830828 3.72702842,0.774074074 2.7802511,0.774074074 C1.94235514,0.774074074 1.5136327,1.21407038 1.43847658,2.21171602 L1.43394489,2.27981918 C1.42861513,2.37175338 1.42613201,2.46821463 1.42645516,2.56928837 L1.4267078,2.60740741 L1.42666441,8.8755285 C1.43572254,9.49679372 1.63706233,9.73703704 2.12177058,9.73703704 C2.57521571,9.73703704 2.75506376,9.53282354 2.74662459,8.98231038 L2.74522298,8.92794908 L2.74366885,8.89072095 L2.74366885,3.0962963 C2.74366885,2.89379189 2.89107474,2.72962963 3.07290911,2.72962963 C3.24954822,2.72962963 3.39369808,2.8845452 3.40179101,3.07903561 L3.40214937,3.0962963 L3.40214937,8.87374074 L3.40302975,8.89532652 C3.43758623,9.88178149 2.98895265,10.4578947 2.14928938,10.4701701 L2.12177058,10.4703704 C1.27381981,10.4703704 0.793485178,9.90822167 0.76887344,8.91440101 L0.768227278,8.88148148 L0.768247831,2.61150437 C0.751596214,0.951926649 1.44856379,0.0407407407 2.7802511,0.0407407407 Z" mask="url(#h)"/></g></g><path fill="#262626" d="M963,596 L963,629.5 C963,633.089851 960.089851,636 956.5,636 C952.910149,636 950,633.089851 950,629.5 L950,596 L812,596 L812,629.5 C812,633.089851 809.089851,636 805.5,636 C801.910149,636 799,633.089851 799,629.5 L799,596 L661,596 L661,629.5 C661,633.089851 658.089851,636 654.5,636 C650.910149,636 648,633.089851 648,629.5 L648,596 L511,596 L511,629.5 C511,633.089851 508.089851,636 504.5,636 C500.910149,636 498,633.089851 498,629.5 L498,596 L360,596 L360,629.5 C360,633.089851 357.089851,636 353.5,636 C349.910149,636 347,633.089851 347,629.5 L347,596 L216.5,596 L216.5,596 C212.910149,596 210,593.089851 210,589.5 L210,54.5 C210,50.9101491 212.910149,48 216.5,48 C220.089851,48 223,50.9101491 223,54.5 L222.999,211 L346.999,211 L347,54.5 C347,50.9101491 349.910149,48 353.5,48 C357.089851,48 360,50.9101491 360,54.5 L359.999,211 L498,211 L498,54.5 C498,50.9101491 500.910149,48 504.5,48 C508.089851,48 511,50.9101491 511,54.5 L511,211 L648,211 L648,54.5 C648,50.9101491 650.910149,48 654.5,48 C658.089851,48 661,50.9101491 661,54.5 L661,211 L799,211 L799,54.5 C799,50.9101491 801.910149,48 805.5,48 C809.089851,48 812,50.9101491 812,54.5 L812,211 L950,211 L950,54.5 C950,50.9101491 952.910149,48 956.5,48 C960.089851,48 963,50.9101491 963,54.5 L963,211 L1086,211 L1086,54.5 C1086,50.9101491 1088.91015,48 1092.5,48 C1096.08985,48 1099,50.9101491 1099,54.5 L1099,589.5 L1099,589.5 C1099,593.011811 1096.215,595.873151 1092.73313,595.995897 L1092.5,596 L1092.5,596 L963,596 Z M346.999,472 L223,472 L223,583 L347,583 L346.999,472 Z M498,472 L359.999,472 L360,583 L498,583 L498,472 Z M648,472 L511,472 L511,583 L648,583 L648,472 Z M799,472 L661,472 L661,583 L799,583 L799,472 Z M950,472 L812,472 L812,583 L950,583 L950,472 Z M1086,472 L963,472 L963,583 L1086,583 L1086,472 Z M346.999,348 L222.999,348 L222.999,459 L346.999,459 L346.999,348 Z M498,348 L359.999,348 L359.999,459 L498,459 L498,348 Z M648,348 L511,348 L511,459 L648,459 L648,348 Z M799,348 L661,348 L661,459 L799,459 L799,348 Z M950,348 L812,348 L812,459 L950,459 L950,348 Z M1086,348 L963,348 L963,459 L1086,459 L1086,348 Z M346.999,224 L222.999,224 L222.999,335 L346.999,335 L346.999,224 Z M498,224 L359.999,224 L359.999,335 L498,335 L498,224 Z M648,224 L511,224 L511,335 L648,335 L648,224 Z M799,224 L661,224 L661,335 L799,335 L799,224 Z M950,224 L812,224 L812,335 L950,335 L950,224 Z M1086,224 L963,224 L963,335 L1086,335 L1086,224 Z" opacity=".12"/><circle cx="210" cy="384" r="48" fill="#5634BA"/><circle cx="1099" cy="428" r="48" fill="#5634BA"/><path fill="#262626" d="M244.5 86 311.5 86C315.089851 86 318 88.9101491 318 92.5 318 96.0898509 315.089851 99 311.5 99L244.5 99C240.910149 99 238 96.0898509 238 92.5 238 88.9101491 240.910149 86 244.5 86ZM395.5 86 462.5 86C466.089851 86 469 88.9101491 469 92.5 469 96.0898509 466.089851 99 462.5 99L395.5 99C391.910149 99 389 96.0898509 389 92.5 389 88.9101491 391.910149 86 395.5 86ZM545.5 86 612.5 86C616.089851 86 619 88.9101491 619 92.5 619 96.0898509 616.089851 99 612.5 99L545.5 99C541.910149 99 539 96.0898509 539 92.5 539 88.9101491 541.910149 86 545.5 86ZM696.5 86 763.5 86C767.089851 86 770 88.9101491 770 92.5 770 96.0898509 767.089851 99 763.5 99L696.5 99C692.910149 99 690 96.0898509 690 92.5 690 88.9101491 692.910149 86 696.5 86ZM847.5 86 914.5 86C918.089851 86 921 88.9101491 921 92.5 921 96.0898509 918.089851 99 914.5 99L847.5 99C843.910149 99 841 96.0898509 841 92.5 841 88.9101491 843.910149 86 847.5 86ZM998.5 86 1065.5 86C1069.08985 86 1072 88.9101491 1072 92.5 1072 96.0898509 1069.08985 99 1065.5 99L998.5 99C994.910149 99 992 96.0898509 992 92.5 992 88.9101491 994.910149 86 998.5 86Z" opacity=".12"/><g transform="translate(502 652)"><path fill="#F5CC0B" d="M0.00125888485,73 L127.001259,73 C127.001259,24.3333333 105.834592,0 63.5012589,0 C21.1679256,0 0.00125888485,24.3333333 0.00125888485,73 Z"/><path fill="#D4D4D4" d="M0,73 L127.001259,73 C127.001259,67.4999976 126.777712,62.8333309 126.330618,59 L0.6555467,59 C0.199364033,63.118618 -0.0191515339,67.7852847 0,73 Z"/><path fill="#F7F7F7" d="M0.6555467,59 L126.330618,59 C126.123681,56.4470519 125.780751,53.7803852 125.301826,51 L1.70452662,51 C1.23694444,53.8823392 0.887284469,56.5490059 0.6555467,59 Z"/><path fill="#FFF" fill-rule="nonzero" d="M64.0012589 14.5C73.2267179 14.5 80.3807319 15.4568557 85.7206583 17.063615 87.6249853 17.6366183 89.1710902 18.2568516 90.3902456 18.8855988 91.1602908 19.2827293 91.6664601 19.6106689 91.9397529 19.8298595 92.5860037 20.3481754 92.6897154 21.2922433 92.1713994 21.9384941 91.6854782 22.5443542 90.825361 22.6733733 90.1872502 22.2600548L89.9660999 22.0993883 89.8146316 22.000337 89.6067363 21.874838 89.3407905 21.7247423 89.0151705 21.5519012C87.962033 21.0087734 86.5869119 20.4571317 84.856255 19.936385 79.8105128 18.4181443 72.945928 17.5 64.0012589 17.5 55.0565898 17.5 48.1920049 18.4181443 43.1462628 19.936385 41.4156059 20.4571317 40.0404847 21.0087734 38.9873472 21.5519012L38.6617273 21.7247423 38.3957815 21.874838 38.1878862 22.000337 38.0364179 22.0993883 37.9397529 22.1701405C37.2935022 22.6884565 36.3494343 22.5847448 35.8311183 21.9384941 35.3128024 21.2922433 35.416514 20.3481754 36.0627648 19.8298595 36.1174234 19.7860213 36.181397 19.7378333 36.2549337 19.6856117L36.5044809 19.517163C36.7832133 19.3372467 37.1502451 19.1238771 37.6122722 18.8855988 38.8314276 18.2568516 40.3775324 17.6366183 42.2818595 17.063615 47.6217859 15.4568557 54.7757999 14.5 64.0012589 14.5ZM63.3128375 4.5017958 64.0012589 4.5C66.5422552 4.5 68.8983775 4.57261976 71.0776651 4.71161924L72.2488785 4.79398274 73.3853071 4.88928744C78.0483608 5.3130386 81.8131124 6.06793963 84.773938 7.08073688 86.4863046 7.66647897 87.8239975 8.30567332 88.8324808 8.96094825 89.4946668 9.39121207 89.9179314 9.7613659 90.1459578 10.0306371 90.6813221 10.6628368 90.6028215 11.6093345 89.9706218 12.1446989 89.3779345 12.646603 88.5090088 12.6089773 87.9615817 12.081397L87.8381571 11.9500604 87.7050942 11.8358971 87.5471947 11.7159828 87.3299181 11.5638935C87.2885656 11.5360007 87.2445953 11.5068697 87.1979353 11.4765518 86.4028758 10.9599517 85.2880926 10.427271 83.8029752 9.91926312 81.2739254 9.05416159 78.0588684 8.38405795 74.085176 7.97072882L73.0313037 7.8687692 71.9427266 7.7787028 70.8191583 7.70077334C68.9172258 7.58114041 66.8683024 7.51309352 64.6664187 7.50171006L64.0012589 7.5C61.54547 7.5 59.2754852 7.56917712 57.1833595 7.70077334L56.0597911 7.7787028 54.9712141 7.8687692C50.5079769 8.26899265 46.9485098 8.97893537 44.1995426 9.91926312 42.7144251 10.427271 41.599642 10.9599517 40.8045825 11.4765518L40.6725997 11.5638935 40.455323 11.7159828 40.2974236 11.8358971 40.1954517 11.921177 40.1459578 11.9693629C39.6105934 12.6015627 38.6640957 12.6800632 38.031896 12.1446989 37.3996962 11.6093345 37.3211956 10.6628368 37.85656 10.0306371 38.0845863 9.7613659 38.507851 9.39121207 39.170037 8.96094825 40.1785203 8.30567332 41.5162132 7.66647897 43.2285797 7.08073688 46.1894053 6.06793963 49.954157 5.3130386 54.6172107 4.88928744L55.7536393 4.79398274 56.9248526 4.71161924C58.9060232 4.58525608 61.0333381 4.51375219 63.3128375 4.5017958Z"/><g transform="translate(177)"><path fill="#F5CC0B" d="M0.00125888485,73 L127.001259,73 C127.001259,24.3333333 105.834592,0 63.5012589,0 C21.1679256,0 0.00125888485,24.3333333 0.00125888485,73 Z"/><path fill="#D4D4D4" d="M0,73 L127.001259,73 C127.001259,67.4999976 126.777712,62.8333309 126.330618,59 L0.6555467,59 C0.199364033,63.118618 -0.0191515339,67.7852847 0,73 Z"/><path fill="#F7F7F7" d="M0.6555467,59 L126.330618,59 C126.123681,56.4470519 125.780751,53.7803852 125.301826,51 L1.70452662,51 C1.23694444,53.8823392 0.887284469,56.5490059 0.6555467,59 Z"/><path fill="#FFF" fill-rule="nonzero" d="M64.0012589 14.5C73.2267179 14.5 80.3807319 15.4568557 85.7206583 17.063615 87.6249853 17.6366183 89.1710902 18.2568516 90.3902456 18.8855988 91.1602908 19.2827293 91.6664601 19.6106689 91.9397529 19.8298595 92.5860037 20.3481754 92.6897154 21.2922433 92.1713994 21.9384941 91.6854782 22.5443542 90.825361 22.6733733 90.1872502 22.2600548L89.9660999 22.0993883 89.8146316 22.000337 89.6067363 21.874838 89.3407905 21.7247423 89.0151705 21.5519012C87.962033 21.0087734 86.5869119 20.4571317 84.856255 19.936385 79.8105128 18.4181443 72.945928 17.5 64.0012589 17.5 55.0565898 17.5 48.1920049 18.4181443 43.1462628 19.936385 41.4156059 20.4571317 40.0404847 21.0087734 38.9873472 21.5519012L38.6617273 21.7247423 38.3957815 21.874838 38.1878862 22.000337 38.0364179 22.0993883 37.9397529 22.1701405C37.2935022 22.6884565 36.3494343 22.5847448 35.8311183 21.9384941 35.3128024 21.2922433 35.416514 20.3481754 36.0627648 19.8298595 36.1174234 19.7860213 36.181397 19.7378333 36.2549337 19.6856117L36.5044809 19.517163C36.7832133 19.3372467 37.1502451 19.1238771 37.6122722 18.8855988 38.8314276 18.2568516 40.3775324 17.6366183 42.2818595 17.063615 47.6217859 15.4568557 54.7757999 14.5 64.0012589 14.5ZM63.3128375 4.5017958 64.0012589 4.5C66.5422552 4.5 68.8983775 4.57261976 71.0776651 4.71161924L72.2488785 4.79398274 73.3853071 4.88928744C78.0483608 5.3130386 81.8131124 6.06793963 84.773938 7.08073688 86.4863046 7.66647897 87.8239975 8.30567332 88.8324808 8.96094825 89.4946668 9.39121207 89.9179314 9.7613659 90.1459578 10.0306371 90.6813221 10.6628368 90.6028215 11.6093345 89.9706218 12.1446989 89.3779345 12.646603 88.5090088 12.6089773 87.9615817 12.081397L87.8381571 11.9500604 87.7050942 11.8358971 87.5471947 11.7159828 87.3299181 11.5638935C87.2885656 11.5360007 87.2445953 11.5068697 87.1979353 11.4765518 86.4028758 10.9599517 85.2880926 10.427271 83.8029752 9.91926312 81.2739254 9.05416159 78.0588684 8.38405795 74.085176 7.97072882L73.0313037 7.8687692 71.9427266 7.7787028 70.8191583 7.70077334C68.9172258 7.58114041 66.8683024 7.51309352 64.6664187 7.50171006L64.0012589 7.5C61.54547 7.5 59.2754852 7.56917712 57.1833595 7.70077334L56.0597911 7.7787028 54.9712141 7.8687692C50.5079769 8.26899265 46.9485098 8.97893537 44.1995426 9.91926312 42.7144251 10.427271 41.599642 10.9599517 40.8045825 11.4765518L40.6725997 11.5638935 40.455323 11.7159828 40.2974236 11.8358971 40.1954517 11.921177 40.1459578 11.9693629C39.6105934 12.6015627 38.6640957 12.6800632 38.031896 12.1446989 37.3996962 11.6093345 37.3211956 10.6628368 37.85656 10.0306371 38.0845863 9.7613659 38.507851 9.39121207 39.170037 8.96094825 40.1785203 8.30567332 41.5162132 7.66647897 43.2285797 7.08073688 46.1894053 6.06793963 49.954157 5.3130386 54.6172107 4.88928744L55.7536393 4.79398274 56.9248526 4.71161924C58.9060232 4.58525608 61.0333381 4.51375219 63.3128375 4.5017958Z"/></g></g><g transform="translate(0 223)"><rect width="192" height="192"/><path fill="#FFF153" d="M24.0478854,0 L24.0478854,0 L24.0478854,0 L144,0 L192,48 L192,168 L192,168.045535 C192,181.275221 181.275221,192 168.045535,192 L168.045535,192 L168.045535,192 L24,192 C10.745166,192 1.623249e-15,181.254834 0,168 L0,167.946985 L0,167.946985 L0,24.0591891 L0,24.0478854 C-5.17920143e-15,10.766605 10.766605,2.43973162e-15 24.0478854,0 Z"/><path fill="#F1BF3C" d="M144,0 L192,48 L167.952746,48 C154.72401,48 144,37.2759902 144,24.0472537 L144,24 L144,24 L144,0 Z"/><circle cx="48" cy="108" r="12" fill="#262626"/><g transform="translate(60 132)"><mask id="j" fill="#fff"><use xlink:href="#i"/></mask><use xlink:href="#i" fill="#262626"/><circle cx="36" cy="48" r="24" fill="#FFACDB" mask="url(#j)"/></g><circle cx="144" cy="108" r="12" fill="#262626"/></g><g transform="translate(1032 233)"><rect width="40" height="40"/><path fill="#FFF153" d="M5.00997612,0 L5.00997612,0 L5.00997612,0 L30,0 L40,10 L40,35 L40,35.0094864 C40,37.7656709 37.7656709,40 35.0094864,40 L35.0094864,40 L35.0094864,40 L5,40 C2.23857625,40 3.38176876e-16,37.7614237 0,35 L0,34.9889551 L0,34.9889551 L0,5.01233106 L0,5.00997612 C-3.38851614e-16,2.24304271 2.24304271,5.08277421e-16 5.00997612,0 Z"/><path fill="#F1BF3C" d="M30,0 L40,10 L34.9901555,10 C32.2341687,10 30,7.76583129 30,5.00984452 L30,5 L30,5 L30,0 Z"/><circle cx="10" cy="22.5" r="2.5" fill="#262626"/><g transform="translate(12.5 27.5)"><mask id="l" fill="#fff"><use xlink:href="#k"/></mask><use xlink:href="#k" fill="#262626"/><circle cx="7.5" cy="10" r="5" fill="#FFACDB" mask="url(#l)"/></g><circle cx="30" cy="22.5" r="2.5" fill="#262626"/></g><g transform="translate(449 160)"><rect width="40" height="40"/><path fill="#FFF153" d="M5.00997612,0 L5.00997612,0 L5.00997612,0 L30,0 L40,10 L40,35 L40,35.0094864 C40,37.7656709 37.7656709,40 35.0094864,40 L35.0094864,40 L35.0094864,40 L5,40 C2.23857625,40 3.38176876e-16,37.7614237 0,35 L0,34.9889551 L0,34.9889551 L0,5.01233106 L0,5.00997612 C-3.38851614e-16,2.24304271 2.24304271,5.08277421e-16 5.00997612,0 Z"/><path fill="#F1BF3C" d="M30,0 L40,10 L34.9901555,10 C32.2341687,10 30,7.76583129 30,5.00984452 L30,5 L30,5 L30,0 Z"/><circle cx="10" cy="22.5" r="2.5" fill="#262626"/><g transform="translate(12.5 27.5)"><mask id="n" fill="#fff"><use xlink:href="#m"/></mask><use xlink:href="#m" fill="#262626"/><circle cx="7.5" cy="10" r="5" fill="#FFACDB" mask="url(#n)"/></g><circle cx="30" cy="22.5" r="2.5" fill="#262626"/></g><g transform="translate(901 496)"><rect width="40" height="40"/><path fill="#FFF153" d="M5.00997612,0 L5.00997612,0 L5.00997612,0 L30,0 L40,10 L40,35 L40,35.0094864 C40,37.7656709 37.7656709,40 35.0094864,40 L35.0094864,40 L35.0094864,40 L5,40 C2.23857625,40 3.38176876e-16,37.7614237 0,35 L0,34.9889551 L0,34.9889551 L0,5.01233106 L0,5.00997612 C-3.38851614e-16,2.24304271 2.24304271,5.08277421e-16 5.00997612,0 Z"/><path fill="#F1BF3C" d="M30,0 L40,10 L34.9901555,10 C32.2341687,10 30,7.76583129 30,5.00984452 L30,5 L30,5 L30,0 Z"/><circle cx="10" cy="22.5" r="2.5" fill="#262626"/><g transform="translate(12.5 27.5)"><mask id="p" fill="#fff"><use xlink:href="#o"/></mask><use xlink:href="#o" fill="#262626"/><circle cx="7.5" cy="10" r="5" fill="#FFACDB" mask="url(#p)"/></g><circle cx="30" cy="22.5" r="2.5" fill="#262626"/></g><g transform="translate(443 280)"><circle cx="32" cy="32" r="32" fill="#262626"/><g transform="translate(115 120)"><mask id="r" fill="#fff"><use xlink:href="#q"/></mask><use xlink:href="#q" fill="#262626"/><circle cx="96" cy="128" r="64" fill="#FFACDB" mask="url(#r)"/></g><circle cx="392" cy="32" r="32" fill="#262626"/></g></g></svg>