<svg xmlns="http://www.w3.org/2000/svg" xmlns:xlink="http://www.w3.org/1999/xlink" width="1146" height="712" viewBox="0 0 1146 712"><defs><path id="a" d="M96,96 C149.019336,96 192,53.019336 192,0 L0,0 C0,53.019336 42.980664,96 96,96 Z"/><path id="c" d="M36,36 C55.882251,36 72,19.882251 72,0 L0,0 C0,19.882251 16.117749,36 36,36 Z"/></defs><g fill="none" fill-rule="evenodd"><rect width="1146" height="712"/><path fill="#FF8DF2" d="M110.24953,48.4686062 L112.127694,48 L112.127694,48 L296,0 L492,128 L689,0 L873.121426,48 L874.76472,48.4116046 C911.344391,57.5739056 937,90.4481564 937,128.157838 L937,128.157838 L937,128.157838 L937,584 C937,611.584778 914.638119,633.946659 887.053341,633.946659 C882.962138,633.946659 878.886434,633.443992 874.917828,632.449954 L873.121426,632 L873.121426,632 L688.999513,584 L492,712 L296,584 L112,632 L110.226273,632.443432 C83.3936258,639.151594 56.2034276,622.837475 49.4952657,596.004827 C48.5021704,592.032446 48,587.953263 48,583.858626 L48,583.858626 L48,583.858626 L48,128.157838 C48,90.4556951 73.668798,57.5955787 110.24953,48.4686062 Z"/><path fill="#F36DE4" d="M110.24953,48.4686062 L112.127694,48 L112.127694,48 L296,0 L296,584 L112,632 L110.226273,632.443432 C83.3936258,639.151594 56.2034276,622.837475 49.4952657,596.004827 C48.5021704,592.032446 48,587.953263 48,583.858626 L48,583.858626 L48,583.858626 L48,128.157838 C48,90.4556951 73.668798,57.5955787 110.24953,48.4686062 Z"/><polygon fill="#F36DE4" points="492 712 492 128 689 0 689 584"/><circle cx="48" cy="292" r="48" fill="#D046C0"/><circle cx="937" cy="372" r="48" fill="#D046C0"/><circle cx="385" cy="292" r="32" fill="#262626"/><circle cx="601" cy="292" r="32" fill="#262626"/><g transform="translate(396 371)"><mask id="b" fill="#fff"><use xlink:href="#a"/></mask><use xlink:href="#a" fill="#262626"/><circle cx="96" cy="128" r="64" fill="#FFACDB" mask="url(#b)"/></g><g transform="translate(333 639)"><path fill="#00C334" d="M0.00125888485,73 L127.001259,73 C127.001259,24.3333333 105.834592,0 63.5012589,0 C21.1679256,0 0.00125888485,24.3333333 0.00125888485,73 Z"/><path fill="#D4D4D4" d="M0,73 L127.001259,73 C127.001259,67.4999976 126.777712,62.8333309 126.330618,59 L0.6555467,59 C0.199364033,63.118618 -0.0191515339,67.7852847 0,73 Z"/><path fill="#F7F7F7" d="M0.6555467,59 L126.330618,59 C126.123681,56.4470519 125.780751,53.7803852 125.301826,51 L1.70452662,51 C1.23694444,53.8823392 0.887284469,56.5490059 0.6555467,59 Z"/><path fill="#FFF" fill-rule="nonzero" d="M64.0012589 14.5C73.2267179 14.5 80.3807319 15.4568557 85.7206583 17.063615 87.6249853 17.6366183 89.1710902 18.2568516 90.3902456 18.8855988 91.1602908 19.2827293 91.6664601 19.6106689 91.9397529 19.8298595 92.5860037 20.3481754 92.6897154 21.2922433 92.1713994 21.9384941 91.6854782 22.5443542 90.825361 22.6733733 90.1872502 22.2600548L89.9660999 22.0993883 89.8146316 22.000337 89.6067363 21.874838 89.3407905 21.7247423 89.0151705 21.5519012C87.962033 21.0087734 86.5869119 20.4571317 84.856255 19.936385 79.8105128 18.4181443 72.945928 17.5 64.0012589 17.5 55.0565898 17.5 48.1920049 18.4181443 43.1462628 19.936385 41.4156059 20.4571317 40.0404847 21.0087734 38.9873472 21.5519012L38.6617273 21.7247423 38.3957815 21.874838 38.1878862 22.000337 38.0364179 22.0993883 37.9397529 22.1701405C37.2935022 22.6884565 36.3494343 22.5847448 35.8311183 21.9384941 35.3128024 21.2922433 35.416514 20.3481754 36.0627648 19.8298595 36.1174234 19.7860213 36.181397 19.7378333 36.2549337 19.6856117L36.5044809 19.517163C36.7832133 19.3372467 37.1502451 19.1238771 37.6122722 18.8855988 38.8314276 18.2568516 40.3775324 17.6366183 42.2818595 17.063615 47.6217859 15.4568557 54.7757999 14.5 64.0012589 14.5ZM63.3128375 4.5017958 64.0012589 4.5C66.5422552 4.5 68.8983775 4.57261976 71.0776651 4.71161924L72.2488785 4.79398274 73.3853071 4.88928744C78.0483608 5.3130386 81.8131124 6.06793963 84.773938 7.08073688 86.4863046 7.66647897 87.8239975 8.30567332 88.8324808 8.96094825 89.4946668 9.39121207 89.9179314 9.7613659 90.1459578 10.0306371 90.6813221 10.6628368 90.6028215 11.6093345 89.9706218 12.1446989 89.3779345 12.646603 88.5090088 12.6089773 87.9615817 12.081397L87.8381571 11.9500604 87.7050942 11.8358971 87.5471947 11.7159828 87.3299181 11.5638935C87.2885656 11.5360007 87.2445953 11.5068697 87.1979353 11.4765518 86.4028758 10.9599517 85.2880926 10.427271 83.8029752 9.91926312 81.2739254 9.05416159 78.0588684 8.38405795 74.085176 7.97072882L73.0313037 7.8687692 71.9427266 7.7787028 70.8191583 7.70077334C68.9172258 7.58114041 66.8683024 7.51309352 64.6664187 7.50171006L64.0012589 7.5C61.54547 7.5 59.2754852 7.56917712 57.1833595 7.70077334L56.0597911 7.7787028 54.9712141 7.8687692C50.5079769 8.26899265 46.9485098 8.97893537 44.1995426 9.91926312 42.7144251 10.427271 41.599642 10.9599517 40.8045825 11.4765518L40.6725997 11.5638935 40.455323 11.7159828 40.2974236 11.8358971 40.1954517 11.921177 40.1459578 11.9693629C39.6105934 12.6015627 38.6640957 12.6800632 38.031896 12.1446989 37.3996962 11.6093345 37.3211956 10.6628368 37.85656 10.0306371 38.0845863 9.7613659 38.507851 9.39121207 39.170037 8.96094825 40.1785203 8.30567332 41.5162132 7.66647897 43.2285797 7.08073688 46.1894053 6.06793963 49.954157 5.3130386 54.6172107 4.88928744L55.7536393 4.79398274 56.9248526 4.71161924C58.9060232 4.58525608 61.0333381 4.51375219 63.3128375 4.5017958Z"/></g><g transform="translate(524 639)"><path fill="#00C334" d="M0.00125888485,73 L127.001259,73 C127.001259,24.3333333 105.834592,0 63.5012589,0 C21.1679256,0 0.00125888485,24.3333333 0.00125888485,73 Z"/><path fill="#D4D4D4" d="M0,73 L127.001259,73 C127.001259,67.4999976 126.777712,62.8333309 126.330618,59 L0.6555467,59 C0.199364033,63.118618 -0.0191515339,67.7852847 0,73 Z"/><path fill="#F7F7F7" d="M0.6555467,59 L126.330618,59 C126.123681,56.4470519 125.780751,53.7803852 125.301826,51 L1.70452662,51 C1.23694444,53.8823392 0.887284469,56.5490059 0.6555467,59 Z"/><path fill="#FFF" fill-rule="nonzero" d="M64.0012589 14.5C73.2267179 14.5 80.3807319 15.4568557 85.7206583 17.063615 87.6249853 17.6366183 89.1710902 18.2568516 90.3902456 18.8855988 91.1602908 19.2827293 91.6664601 19.6106689 91.9397529 19.8298595 92.5860037 20.3481754 92.6897154 21.2922433 92.1713994 21.9384941 91.6854782 22.5443542 90.825361 22.6733733 90.1872502 22.2600548L89.9660999 22.0993883 89.8146316 22.000337 89.6067363 21.874838 89.3407905 21.7247423 89.0151705 21.5519012C87.962033 21.0087734 86.5869119 20.4571317 84.856255 19.936385 79.8105128 18.4181443 72.945928 17.5 64.0012589 17.5 55.0565898 17.5 48.1920049 18.4181443 43.1462628 19.936385 41.4156059 20.4571317 40.0404847 21.0087734 38.9873472 21.5519012L38.6617273 21.7247423 38.3957815 21.874838 38.1878862 22.000337 38.0364179 22.0993883 37.9397529 22.1701405C37.2935022 22.6884565 36.3494343 22.5847448 35.8311183 21.9384941 35.3128024 21.2922433 35.416514 20.3481754 36.0627648 19.8298595 36.1174234 19.7860213 36.181397 19.7378333 36.2549337 19.6856117L36.5044809 19.517163C36.7832133 19.3372467 37.1502451 19.1238771 37.6122722 18.8855988 38.8314276 18.2568516 40.3775324 17.6366183 42.2818595 17.063615 47.6217859 15.4568557 54.7757999 14.5 64.0012589 14.5ZM63.3128375 4.5017958 64.0012589 4.5C66.5422552 4.5 68.8983775 4.57261976 71.0776651 4.71161924L72.2488785 4.79398274 73.3853071 4.88928744C78.0483608 5.3130386 81.8131124 6.06793963 84.773938 7.08073688 86.4863046 7.66647897 87.8239975 8.30567332 88.8324808 8.96094825 89.4946668 9.39121207 89.9179314 9.7613659 90.1459578 10.0306371 90.6813221 10.6628368 90.6028215 11.6093345 89.9706218 12.1446989 89.3779345 12.646603 88.5090088 12.6089773 87.9615817 12.081397L87.8381571 11.9500604 87.7050942 11.8358971 87.5471947 11.7159828 87.3299181 11.5638935C87.2885656 11.5360007 87.2445953 11.5068697 87.1979353 11.4765518 86.4028758 10.9599517 85.2880926 10.427271 83.8029752 9.91926312 81.2739254 9.05416159 78.0588684 8.38405795 74.085176 7.97072882L73.0313037 7.8687692 71.9427266 7.7787028 70.8191583 7.70077334C68.9172258 7.58114041 66.8683024 7.51309352 64.6664187 7.50171006L64.0012589 7.5C61.54547 7.5 59.2754852 7.56917712 57.1833595 7.70077334L56.0597911 7.7787028 54.9712141 7.8687692C50.5079769 8.26899265 46.9485098 8.97893537 44.1995426 9.91926312 42.7144251 10.427271 41.599642 10.9599517 40.8045825 11.4765518L40.6725997 11.5638935 40.455323 11.7159828 40.2974236 11.8358971 40.1954517 11.921177 40.1459578 11.9693629C39.6105934 12.6015627 38.6640957 12.6800632 38.031896 12.1446989 37.3996962 11.6093345 37.3211956 10.6628368 37.85656 10.0306371 38.0845863 9.7613659 38.507851 9.39121207 39.170037 8.96094825 40.1785203 8.30567332 41.5162132 7.66647897 43.2285797 7.08073688 46.1894053 6.06793963 49.954157 5.3130386 54.6172107 4.88928744L55.7536393 4.79398274 56.9248526 4.71161924C58.9060232 4.58525608 61.0333381 4.51375219 63.3128375 4.5017958Z"/></g><g transform="translate(954 196)"><rect width="192" height="192"/><path fill="#FFF153" d="M24.0478854,0 L24.0478854,0 L24.0478854,0 L144,0 L192,48 L192,168 L192,168.045535 C192,181.275221 181.275221,192 168.045535,192 L168.045535,192 L168.045535,192 L24,192 C10.745166,192 1.623249e-15,181.254834 0,168 L0,167.946985 L0,167.946985 L0,24.0591891 L0,24.0478854 C-5.17920143e-15,10.766605 10.766605,2.43973162e-15 24.0478854,0 Z"/><path fill="#F1BF3C" d="M144,0 L192,48 L167.952746,48 C154.72401,48 144,37.2759902 144,24.0472537 L144,24 L144,24 L144,0 Z"/><circle cx="48" cy="108" r="12" fill="#262626"/><g transform="translate(60 132)"><mask id="d" fill="#fff"><use xlink:href="#c"/></mask><use xlink:href="#c" fill="#262626"/><circle cx="36" cy="48" r="24" fill="#FFACDB" mask="url(#d)"/></g><circle cx="144" cy="108" r="12" fill="#262626"/></g><g transform="translate(160 324)"><ellipse cx="50.5" cy="121.5" fill="#000" fill-opacity=".246" rx="25.5" ry="2.5"/><path fill="#0097FF" d="M50.5,0 C78.3903799,0 101,22.6096201 101,50.5 C101,68.7124039 84.8497842,92.5915317 52.5493526,122.137383 C52.5487599,122.137925 52.5412933,122.144715 52.5269528,122.157751 C51.3749907,123.204965 49.6149555,123.202295 48.4661782,122.151589 L48.4661782,122.151589 L47.5017012,121.266717 C15.8339004,92.1220752 0,68.5331694 0,50.5 C0,22.6096201 22.6096201,0 50.5,0 Z M50,16 C35.9167389,16 24.5,27.4167389 24.5,41.5 C24.5,55.5832611 35.9167389,67 50,67 C64.0832611,67 75.5,55.5832611 75.5,41.5 C75.5,27.4167389 64.0832611,16 50,16 Z"/></g></g></svg>