<svg xmlns="http://www.w3.org/2000/svg" xmlns:xlink="http://www.w3.org/1999/xlink" width="807" height="984" viewBox="0 0 807 984"><defs><path id="a" d="M96,96 C149.019336,96 192,53.019336 192,0 L0,0 C0,53.019336 42.980664,96 96,96 Z"/></defs><g fill="none" fill-rule="evenodd" transform="translate(.5)"><rect width="807" height="984"/><g transform="translate(58.5 150)"><path fill="#FFF153" d="M64.1276943,0 L64.1276943,0 L64.1276943,0 L384,0 L512,128 L512,448 L512,448.121426 C512,483.400588 483.400588,512 448.121426,512 L448.121426,512 L448.121426,512 L64,512 C28.653776,512 4.32866401e-15,483.346224 0,448 L0,447.858626 L0,447.858626 L0,64.1578376 L0,64.1276943 C-4.33730066e-15,28.7109467 28.7109467,6.50595099e-15 64.1276943,0 Z"/><path fill="#F1BF3C" d="M384,0 L512,128 L447.87399,128 C412.597359,128 384,99.4026405 384,64.1260098 L384,64 L384,64 L384,0 Z"/><circle cx="128" cy="288" r="32" fill="#262626"/><g transform="translate(160 352)"><mask id="b" fill="#fff"><use xlink:href="#a"/></mask><use xlink:href="#a" fill="#262626"/><circle cx="96" cy="128" r="64" fill="#FFACDB" mask="url(#b)"/></g><circle cx="384" cy="288" r="32" fill="#262626"/></g><circle cx="66.5" cy="511" r="48" fill="#F1BF3C"/><circle cx="570.5" cy="511" r="48" fill="#F1BF3C"/><g transform="translate(472.5)"><polygon fill="#E7DA00" points="262 0 0 855 72 879 334 24"/><polygon fill="#DDD" points="275.769 32.167 303.858 41.355 305.875 34.5 277.799 25.327"/><polygon fill="#FEDCB8" points="0 855 72 879 0 983.623"/><polygon fill="#FFCB94" points="0 983.623 36 867.07 72 879"/><polygon fill="#4E323B" points="0 983.623 22.212 951.341 0 945.416"/><path fill="#020204" d="M21.441122,862.113709 C27.5431727,868.364564 36.8910713,871.489991 49.484818,871.489991 L311.484818,16.489991 L283.441122,7.11370877 L21.441122,862.113709 Z"/><path fill="#E7DA00" d="M72,879 C63.8547028,878.705205 56.3496421,876.201869 49.484818,871.489991 L62.7894627,869.384165 L72,879 Z"/><path fill="#FD002F" d="M262,0 C287.666713,2.33212573 311.666713,10.3321257 334,24 L328.51987,41.8805418 L256.390314,18.3491264 L262,0 Z"/><polygon fill="#F7F7F7" points="256.39 18.349 328.52 41.881 326.421 48.726 254.294 25.151"/><path fill="#E7DA00" d="M21.441122,862.113709 C10.0470232,860.802536 2.8999825,858.431299 1.8189894e-12,855 L13.3046447,852.894174 L21.441122,862.113709 Z"/></g><g transform="translate(162.5 642)"><path fill="#131F75" d="M0.00125888485,73 L127.001259,73 C127.001259,24.3333333 105.834592,0 63.5012589,0 C21.1679256,0 0.00125888485,24.3333333 0.00125888485,73 Z"/><path fill="#D4D4D4" d="M0,73 L127.001259,73 C127.001259,67.4999976 126.777712,62.8333309 126.330618,59 L0.6555467,59 C0.199364033,63.118618 -0.0191515339,67.7852847 0,73 Z"/><path fill="#F7F7F7" d="M0.6555467,59 L126.330618,59 C126.123681,56.4470519 125.780751,53.7803852 125.301826,51 L1.70452662,51 C1.23694444,53.8823392 0.887284469,56.5490059 0.6555467,59 Z"/><path fill="#FFF" fill-rule="nonzero" d="M64.0012589 14.5C73.2267179 14.5 80.3807319 15.4568557 85.7206583 17.063615 87.6249853 17.6366183 89.1710902 18.2568516 90.3902456 18.8855988 91.1602908 19.2827293 91.6664601 19.6106689 91.9397529 19.8298595 92.5860037 20.3481754 92.6897154 21.2922433 92.1713994 21.9384941 91.6854782 22.5443542 90.825361 22.6733733 90.1872502 22.2600548L89.9660999 22.0993883 89.8146316 22.000337 89.6067363 21.874838 89.3407905 21.7247423 89.0151705 21.5519012C87.962033 21.0087734 86.5869119 20.4571317 84.856255 19.936385 79.8105128 18.4181443 72.945928 17.5 64.0012589 17.5 55.0565898 17.5 48.1920049 18.4181443 43.1462628 19.936385 41.4156059 20.4571317 40.0404847 21.0087734 38.9873472 21.5519012L38.6617273 21.7247423 38.3957815 21.874838 38.1878862 22.000337 38.0364179 22.0993883 37.9397529 22.1701405C37.2935022 22.6884565 36.3494343 22.5847448 35.8311183 21.9384941 35.3128024 21.2922433 35.416514 20.3481754 36.0627648 19.8298595 36.1174234 19.7860213 36.181397 19.7378333 36.2549337 19.6856117L36.5044809 19.517163C36.7832133 19.3372467 37.1502451 19.1238771 37.6122722 18.8855988 38.8314276 18.2568516 40.3775324 17.6366183 42.2818595 17.063615 47.6217859 15.4568557 54.7757999 14.5 64.0012589 14.5ZM63.3128375 4.5017958 64.0012589 4.5C66.5422552 4.5 68.8983775 4.57261976 71.0776651 4.71161924L72.2488785 4.79398274 73.3853071 4.88928744C78.0483608 5.3130386 81.8131124 6.06793963 84.773938 7.08073688 86.4863046 7.66647897 87.8239975 8.30567332 88.8324808 8.96094825 89.4946668 9.39121207 89.9179314 9.7613659 90.1459578 10.0306371 90.6813221 10.6628368 90.6028215 11.6093345 89.9706218 12.1446989 89.3779345 12.646603 88.5090088 12.6089773 87.9615817 12.081397L87.8381571 11.9500604 87.7050942 11.8358971 87.5471947 11.7159828 87.3299181 11.5638935C87.2885656 11.5360007 87.2445953 11.5068697 87.1979353 11.4765518 86.4028758 10.9599517 85.2880926 10.427271 83.8029752 9.91926312 81.2739254 9.05416159 78.0588684 8.38405795 74.085176 7.97072882L73.0313037 7.8687692 71.9427266 7.7787028 70.8191583 7.70077334C68.9172258 7.58114041 66.8683024 7.51309352 64.6664187 7.50171006L64.0012589 7.5C61.54547 7.5 59.2754852 7.56917712 57.1833595 7.70077334L56.0597911 7.7787028 54.9712141 7.8687692C50.5079769 8.26899265 46.9485098 8.97893537 44.1995426 9.91926312 42.7144251 10.427271 41.599642 10.9599517 40.8045825 11.4765518L40.6725997 11.5638935 40.455323 11.7159828 40.2974236 11.8358971 40.1954517 11.921177 40.1459578 11.9693629C39.6105934 12.6015627 38.6640957 12.6800632 38.031896 12.1446989 37.3996962 11.6093345 37.3211956 10.6628368 37.85656 10.0306371 38.0845863 9.7613659 38.507851 9.39121207 39.170037 8.96094825 40.1785203 8.30567332 41.5162132 7.66647897 43.2285797 7.08073688 46.1894053 6.06793963 49.954157 5.3130386 54.6172107 4.88928744L55.7536393 4.79398274 56.9248526 4.71161924C58.9060232 4.58525608 61.0333381 4.51375219 63.3128375 4.5017958Z"/><g transform="translate(177)"><path fill="#131F75" d="M0.00125888485,73 L127.001259,73 C127.001259,24.3333333 105.834592,0 63.5012589,0 C21.1679256,0 0.00125888485,24.3333333 0.00125888485,73 Z"/><path fill="#D4D4D4" d="M0,73 L127.001259,73 C127.001259,67.4999976 126.777712,62.8333309 126.330618,59 L0.6555467,59 C0.199364033,63.118618 -0.0191515339,67.7852847 0,73 Z"/><path fill="#F7F7F7" d="M0.6555467,59 L126.330618,59 C126.123681,56.4470519 125.780751,53.7803852 125.301826,51 L1.70452662,51 C1.23694444,53.8823392 0.887284469,56.5490059 0.6555467,59 Z"/><path fill="#FFF" fill-rule="nonzero" d="M64.0012589 14.5C73.2267179 14.5 80.3807319 15.4568557 85.7206583 17.063615 87.6249853 17.6366183 89.1710902 18.2568516 90.3902456 18.8855988 91.1602908 19.2827293 91.6664601 19.6106689 91.9397529 19.8298595 92.5860037 20.3481754 92.6897154 21.2922433 92.1713994 21.9384941 91.6854782 22.5443542 90.825361 22.6733733 90.1872502 22.2600548L89.9660999 22.0993883 89.8146316 22.000337 89.6067363 21.874838 89.3407905 21.7247423 89.0151705 21.5519012C87.962033 21.0087734 86.5869119 20.4571317 84.856255 19.936385 79.8105128 18.4181443 72.945928 17.5 64.0012589 17.5 55.0565898 17.5 48.1920049 18.4181443 43.1462628 19.936385 41.4156059 20.4571317 40.0404847 21.0087734 38.9873472 21.5519012L38.6617273 21.7247423 38.3957815 21.874838 38.1878862 22.000337 38.0364179 22.0993883 37.9397529 22.1701405C37.2935022 22.6884565 36.3494343 22.5847448 35.8311183 21.9384941 35.3128024 21.2922433 35.416514 20.3481754 36.0627648 19.8298595 36.1174234 19.7860213 36.181397 19.7378333 36.2549337 19.6856117L36.5044809 19.517163C36.7832133 19.3372467 37.1502451 19.1238771 37.6122722 18.8855988 38.8314276 18.2568516 40.3775324 17.6366183 42.2818595 17.063615 47.6217859 15.4568557 54.7757999 14.5 64.0012589 14.5ZM63.3128375 4.5017958 64.0012589 4.5C66.5422552 4.5 68.8983775 4.57261976 71.0776651 4.71161924L72.2488785 4.79398274 73.3853071 4.88928744C78.0483608 5.3130386 81.8131124 6.06793963 84.773938 7.08073688 86.4863046 7.66647897 87.8239975 8.30567332 88.8324808 8.96094825 89.4946668 9.39121207 89.9179314 9.7613659 90.1459578 10.0306371 90.6813221 10.6628368 90.6028215 11.6093345 89.9706218 12.1446989 89.3779345 12.646603 88.5090088 12.6089773 87.9615817 12.081397L87.8381571 11.9500604 87.7050942 11.8358971 87.5471947 11.7159828 87.3299181 11.5638935C87.2885656 11.5360007 87.2445953 11.5068697 87.1979353 11.4765518 86.4028758 10.9599517 85.2880926 10.427271 83.8029752 9.91926312 81.2739254 9.05416159 78.0588684 8.38405795 74.085176 7.97072882L73.0313037 7.8687692 71.9427266 7.7787028 70.8191583 7.70077334C68.9172258 7.58114041 66.8683024 7.51309352 64.6664187 7.50171006L64.0012589 7.5C61.54547 7.5 59.2754852 7.56917712 57.1833595 7.70077334L56.0597911 7.7787028 54.9712141 7.8687692C50.5079769 8.26899265 46.9485098 8.97893537 44.1995426 9.91926312 42.7144251 10.427271 41.599642 10.9599517 40.8045825 11.4765518L40.6725997 11.5638935 40.455323 11.7159828 40.2974236 11.8358971 40.1954517 11.921177 40.1459578 11.9693629C39.6105934 12.6015627 38.6640957 12.6800632 38.031896 12.1446989 37.3996962 11.6093345 37.3211956 10.6628368 37.85656 10.0306371 38.0845863 9.7613659 38.507851 9.39121207 39.170037 8.96094825 40.1785203 8.30567332 41.5162132 7.66647897 43.2285797 7.08073688 46.1894053 6.06793963 49.954157 5.3130386 54.6172107 4.88928744L55.7536393 4.79398274 56.9248526 4.71161924C58.9060232 4.58525608 61.0333381 4.51375219 63.3128375 4.5017958Z"/></g></g></g></svg>